<svg xmlns="http://www.w3.org/2000/svg" width="1280" height="720" viewBox="0 0 1280 720" role="img" aria-labelledby="title desc">
  <title id="title">Pinake Editor VS Code sidebar preview</title>
  <desc id="desc">A preview of the Pinake Project Documentation TreeView with favorites, documentation folders, validation diagnostics, and a Markdown preview.</desc>
  <rect width="1280" height="720" fill="#1f1f1f"/>
  <rect x="0" y="0" width="74" height="720" fill="#181818"/>
  <rect x="74" y="0" width="330" height="720" fill="#252526"/>
  <rect x="404" y="0" width="876" height="720" fill="#1e1e1e"/>
  <rect x="0" y="0" width="1280" height="34" fill="#323233"/>
  <text x="96" y="23" fill="#cccccc" font-family="Arial, sans-serif" font-size="13">Pinake Editor - Sample Workspace</text>

  <rect x="20" y="62" width="34" height="34" rx="6" fill="#2d6cdf"/>
  <path d="M29 85h16v3H29zm0-8h20v3H29zm0-8h16v3H29z" fill="#ffffff"/>
  <rect x="22" y="128" width="30" height="30" rx="5" fill="#303030"/>
  <circle cx="37" cy="143" r="10" fill="none" stroke="#8f8f8f" stroke-width="2"/>
  <rect x="22" y="190" width="30" height="30" rx="5" fill="#303030"/>
  <path d="M29 203h16m-8-8v16" stroke="#8f8f8f" stroke-width="2" stroke-linecap="round"/>

  <text x="98" y="68" fill="#ffffff" font-family="Arial, sans-serif" font-size="14" font-weight="700">PROJECT DOCUMENTATION</text>
  <text x="332" y="68" fill="#bdbdbd" font-family="Arial, sans-serif" font-size="17">+</text>
  <text x="361" y="68" fill="#bdbdbd" font-family="Arial, sans-serif" font-size="17">...</text>

  <g font-family="Arial, sans-serif" font-size="14">
    <text x="98" y="112" fill="#f6d365">Star Favorites</text>
    <text x="122" y="143" fill="#d4d4d4">Overview</text>
    <text x="122" y="171" fill="#d4d4d4">Architecture Overview</text>
    <text x="98" y="218" fill="#89d185">00_overview</text>
    <text x="122" y="248" fill="#d4d4d4">Overview</text>
    <text x="122" y="276" fill="#d4d4d4">Product Context</text>
    <text x="98" y="323" fill="#89d185">01_getting-started</text>
    <text x="122" y="353" fill="#d4d4d4">Installation</text>
    <text x="122" y="381" fill="#d4d4d4">Local Setup</text>
    <text x="98" y="428" fill="#89d185">04_architecture</text>
    <text x="122" y="458" fill="#d4d4d4">System Context</text>
    <text x="122" y="486" fill="#d4d4d4">Containers</text>
    <text x="98" y="533" fill="#89d185">06_operations</text>
    <text x="122" y="563" fill="#d4d4d4">Deployment</text>
    <text x="122" y="591" fill="#d4d4d4">Monitoring</text>
  </g>

  <g fill="#6a9955">
    <path d="M104 135l4 4 8-9" stroke="#6a9955" stroke-width="2" fill="none"/>
    <path d="M104 163l4 4 8-9" stroke="#6a9955" stroke-width="2" fill="none"/>
  </g>
  <g fill="#c5c5c5" font-family="Arial, sans-serif" font-size="11">
    <text x="290" y="248">Overview - Draft</text>
    <text x="292" y="458">Architecture - Draft</text>
    <text x="304" y="563">Runbook - Draft</text>
  </g>

  <rect x="404" y="34" width="876" height="42" fill="#2d2d2d"/>
  <text x="430" y="61" fill="#ffffff" font-family="Arial, sans-serif" font-size="14" font-weight="700">Overview.md</text>
  <text x="540" y="61" fill="#bdbdbd" font-family="Arial, sans-serif" font-size="13">Markdown Preview</text>

  <g font-family="Arial, sans-serif">
    <text x="450" y="130" fill="#ffffff" font-size="34" font-weight="700">Overview</text>
    <text x="450" y="172" fill="#d4d4d4" font-size="16">Project documentation stored locally in .pinake/docs.</text>
    <rect x="450" y="210" width="250" height="34" rx="6" fill="#0e639c"/>
    <text x="471" y="233" fill="#ffffff" font-size="14" font-weight="700">Run Pinake: Validate</text>

    <text x="450" y="296" fill="#ffffff" font-size="20" font-weight="700">Documentation Map</text>
    <text x="450" y="334" fill="#d4d4d4" font-size="15">- Getting started guides for new contributors</text>
    <text x="450" y="366" fill="#d4d4d4" font-size="15">- Architecture notes and ADRs</text>
    <text x="450" y="398" fill="#d4d4d4" font-size="15">- Operations runbooks and validation reports</text>
  </g>

  <rect x="450" y="468" width="720" height="152" rx="8" fill="#252526" stroke="#3c3c3c"/>
  <text x="476" y="502" fill="#ffffff" font-family="Arial, sans-serif" font-size="15" font-weight="700">Pinake Validation</text>
  <text x="476" y="536" fill="#89d185" font-family="Arial, sans-serif" font-size="14">No errors found</text>
  <text x="476" y="566" fill="#dcdcaa" font-family="Arial, sans-serif" font-size="14">2 warnings: review Markdown style and placeholder secrets</text>
  <text x="476" y="596" fill="#9cdcfe" font-family="Arial, sans-serif" font-size="14">Diagnostics are available in VS Code Problems</text>
</svg>
